<?xml version="1.0" encoding="UTF-8"?>
<svg id="Layer_1" data-name="Layer 1" xmlns="http://www.w3.org/2000/svg" viewBox="0 0 230.02 74.82">
  <defs>
    <style>
      .cls-1 {
        letter-spacing: 0em;
      }

      .cls-2, .cls-3 {
        fill: #fff;
      }

      .cls-3 {
        font-family: MyriadPro-Regular, 'Myriad Pro';
        font-size: 10.74px;
      }

      .cls-4 {
        letter-spacing: .01em;
      }

      .cls-5 {
        fill: #f26522;
      }

      .cls-6 {
        letter-spacing: 0em;
      }

      .cls-7 {
        fill: #7ecde9;
      }

      .cls-8 {
        letter-spacing: 0em;
      }

      .cls-9 {
        letter-spacing: 0em;
      }

      .cls-10 {
        letter-spacing: .01em;
      }

      .cls-11 {
        letter-spacing: 0em;
      }

      .cls-12 {
        letter-spacing: -.01em;
      }

      .cls-13 {
        fill: #c6e9f7;
      }

      .cls-14 {
        fill: #1588ca;
      }

      .cls-15 {
        fill: #33aadf;
      }

      .cls-16 {
        fill: #1c75bc;
      }
    </style>
  </defs>
  <g>
    <path class="cls-2" d="m58.76,74.82c-6.82,0-13.36-2.94-17.74-7.92-4.38,4.98-10.93,7.92-17.74,7.92-3.79,0-7.55-.9-10.89-2.6l-4.89-2.49c-.23-.12-.38-.31-.45-.53-4.15-1.81-6.86-5.75-6.86-10.17,0-.36.02-.71.06-1.07-.17-.17-.27-.39-.26-.64l.19-5.26c.38-10.55,8.35-19.17,19.12-20.92-.94-2.43-1.42-4.96-1.42-7.54,0-7.6,4.07-14.57,10.89-18.63l4.7-2.8c.15-.09.32-.13.49-.13.09,0,.18.01.26.04,1.99-1.35,4.35-2.07,6.8-2.07s4.8.73,6.79,2.07c.08-.02.17-.03.26-.03.17,0,.34.05.49.13l4.71,2.81c6.82,4.06,10.89,11.03,10.89,18.63,0,2.58-.48,5.11-1.42,7.54,10.77,1.74,18.74,10.37,19.13,20.92l.18,5.26c0,.24-.09.48-.26.64.04.36.06.71.06,1.07,0,4.42-2.7,8.36-6.86,10.17-.06.22-.22.42-.45.53l-4.89,2.49c-3.33,1.7-7.1,2.6-10.88,2.6Z"/>
    <g>
      <path class="cls-5" d="m58.29,59.01c-.16.12-.36.2-.58.2h-7.91c2.11,2.67,5.41,4.28,8.96,4.28.17,0,.33,0,.5-.01-.65-1.4-.98-2.92-.98-4.44v-.02Z"/>
      <path class="cls-5" d="m23.75,59.01v.02c0,1.53-.34,3.04-.98,4.45.17,0,.34.01.5.01,3.55,0,6.86-1.61,8.96-4.28h-7.91c-.22,0-.42-.07-.58-.2Z"/>
      <path class="cls-5" d="m41.02,39.45c-3.16,0-6.26-.48-9.25-1.42,4.7,3.99,7.93,9.28,9.25,15.1,1.31-5.81,4.55-11.1,9.24-15.1-2.99.95-6.09,1.42-9.24,1.42Z"/>
      <path class="cls-5" d="m13.34,47.91c1.63.18,3.17.68,4.53,1.43-.03-.19,0-.39.11-.56l3.98-6.56c-3.63.41-6.9,2.56-8.62,5.68Z"/>
      <path class="cls-5" d="m60.08,42.23l3.98,6.55c.11.17.14.37.11.56,1.36-.75,2.9-1.25,4.53-1.43-1.71-3.11-4.97-5.26-8.62-5.68Z"/>
      <path class="cls-5" d="m34.69,21.27c.11-.18.28-.31.47-.38-1.39-.76-2.61-1.79-3.58-3.03-1.15,1.71-1.77,3.71-1.77,5.74,0,1.44.32,2.86.93,4.19l3.96-6.52Z"/>
      <path class="cls-5" d="m47.36,21.27l3.96,6.52c.61-1.33.93-2.76.93-4.19,0-2.04-.62-4.03-1.77-5.74-.97,1.24-2.19,2.27-3.58,3.03.19.07.36.2.47.38Z"/>
    </g>
    <g>
      <path class="cls-13" d="m55.73,40.3l-1.28-2.12c-6.2,4.21-10.45,10.82-11.21,18.41h2.57c.74-6.69,4.48-12.52,9.92-16.29Z"/>
      <path class="cls-7" d="m58.31,44.54l-1.29-2.12c-4.68,3.33-7.91,8.38-8.63,14.17h2.57c.69-4.89,3.42-9.17,7.35-12.05Z"/>
      <path class="cls-15" d="m53.57,56.59h2.61c.6-3.09,2.31-5.8,4.73-7.77l-1.3-2.14c-3.17,2.43-5.39,5.92-6.05,9.91Z"/>
      <path class="cls-13" d="m52.2,34.49l-1.28-2.12c-3.03,1.29-6.37,2.03-9.89,2.03s-6.87-.73-9.9-2.03l-1.29,2.12c3.41,1.49,7.19,2.34,11.18,2.34s7.77-.85,11.18-2.34Z"/>
      <path class="cls-7" d="m49.63,30.25l-1.29-2.12c-2.26.89-4.73,1.4-7.32,1.4s-5.06-.51-7.32-1.4l-1.29,2.12c2.64,1.09,5.55,1.71,8.61,1.71s5.97-.62,8.61-1.71Z"/>
      <path class="cls-15" d="m41.02,27.09c2.12,0,4.15-.41,6.02-1.1l-1.3-2.14c-1.48.51-3.06.81-4.72.81s-3.24-.3-4.72-.81l-1.3,2.14c1.87.69,3.89,1.1,6.02,1.1Z"/>
      <path class="cls-13" d="m36.23,56.59h2.58c-.76-7.59-5.01-14.2-11.21-18.41l-1.28,2.12c5.43,3.77,9.18,9.6,9.92,16.29Z"/>
      <path class="cls-7" d="m25.02,42.42l-1.29,2.12c3.92,2.88,6.65,7.16,7.35,12.05h2.57c-.72-5.79-3.95-10.85-8.63-14.17Z"/>
      <path class="cls-15" d="m22.43,46.69l-1.3,2.14c2.42,1.97,4.13,4.68,4.73,7.77h2.61c-.65-3.99-2.87-7.48-6.05-9.91Z"/>
      <g>
        <path class="cls-16" d="m2.94,52.15c1.77-2.1,4.34-3.57,7.28-4,1.99-5.03,7.09-8.62,13.07-8.62.17,0,.35.02.52.02l5.4-8.9c-1.36-2.05-2.16-4.47-2.16-7.06,0-3.2,1.19-6.13,3.18-8.43-.5-1.23-.79-2.57-.79-3.98s.29-2.76.8-4.01c-5.75,3.43-9.59,9.49-9.59,16.41,0,3.6,1.05,6.96,2.86,9.85-.08,0-.15,0-.22,0-11,0-19.97,8.33-20.34,18.71Z"/>
        <path class="cls-16" d="m52.61,11.2c0,1.41-.29,2.74-.79,3.98,1.99,2.3,3.18,5.23,3.18,8.43,0,2.59-.8,5.01-2.16,7.06l5.4,8.9c.17,0,.35-.02.52-.02,5.98,0,11.07,3.59,13.07,8.62,2.93.43,5.5,1.89,7.28,4-.37-10.38-9.34-18.71-20.34-18.71-.08,0-.15,0-.22,0,1.8-2.89,2.86-6.25,2.86-9.85,0-6.92-3.85-12.99-9.6-16.41.51,1.24.8,2.59.8,4.01Z"/>
        <path class="cls-16" d="m61.03,65.92c-.74.12-1.49.19-2.27.19-5.35,0-10-2.87-12.35-7.08h-10.78c-2.35,4.2-7,7.08-12.35,7.08-.78,0-1.53-.07-2.27-.19-1.79,2.11-4.37,3.58-7.32,3.99,2.86,1.46,6.12,2.29,9.59,2.29,7.61,0,14.24-3.99,17.74-9.87,3.5,5.89,10.13,9.87,17.74,9.87,3.46,0,6.73-.83,9.59-2.29-2.95-.42-5.53-1.88-7.32-3.99Z"/>
      </g>
      <path class="cls-14" d="m41.02,19.78c-4.98,0-9.03-3.85-9.03-8.58s4.05-8.58,9.03-8.58,9.02,3.85,9.02,8.58-4.05,8.58-9.02,8.58Z"/>
      <path class="cls-14" d="m70.06,67.61c-4.98,0-9.02-3.85-9.02-8.58s4.05-8.58,9.02-8.58,9.02,3.85,9.02,8.58-4.05,8.58-9.02,8.58Z"/>
      <path class="cls-14" d="m11.98,67.61c-4.98,0-9.02-3.85-9.02-8.58s4.05-8.58,9.02-8.58,9.02,3.85,9.02,8.58-4.04,8.58-9.02,8.58Z"/>
    </g>
  </g>
  <g>
    <g>
      <path class="cls-2" d="m92.12,16.18h9.66c5.97,0,10.52,1.74,10.52,7.6,0,2.75-1.54,5.69-4.91,6.63v.19c4.1.81,6.26,3.12,6.26,7.22,0,6.24-4.79,9.04-11.05,9.04h-10.48v-30.68Zm9.36,12.31c3.16,0,4.47-1.42,4.47-3.74s-1.4-3.17-4.42-3.17h-2.92v6.91h2.87Zm.59,12.96c3.54,0,5.23-1.37,5.23-4.17s-1.65-3.8-5.23-3.8h-3.46v7.97h3.46Z"/>
      <path class="cls-2" d="m128.33,28.94h-8.81v-5.43h15.29v23.35h-6.49v-17.92Zm-1.36-13.31c0-2.54,1.81-4.3,4.31-4.3s4.31,1.77,4.31,4.3-1.81,4.24-4.31,4.24-4.31-1.69-4.31-4.24Z"/>
      <path class="cls-2" d="m146.36,43.16l11.39-14.22h-10.05v-5.43h19.08v3.7l-11.46,14.21h11.76v5.44h-20.72v-3.7Z"/>
      <path class="cls-2" d="m182.73,28.94h-8.8v-5.43h15.29v23.35h-6.49v-17.92Zm-1.36-13.31c0-2.54,1.81-4.3,4.31-4.3s4.31,1.77,4.31,4.3-1.81,4.24-4.31,4.24-4.31-1.69-4.31-4.24Z"/>
      <path class="cls-2" d="m206.83,31.07l-7.88-14.89h7.25l2.78,5.79c.69,1.41,1.35,2.99,2.21,4.93h.18c.7-1.94,1.33-3.51,1.94-4.93l2.57-5.79h6.94l-7.88,15.21,8.39,15.46h-7.26l-3.11-6.25c-.79-1.59-1.49-3.17-2.3-5.06h-.18c-.71,1.88-1.4,3.47-2.11,5.06l-2.98,6.25h-6.94l8.39-15.79Z"/>
    </g>
    <text class="cls-3" transform="translate(91.74 63.55) scale(.81 1)"><tspan x="0" y="0">N</tspan><tspan class="cls-11" x="7.07" y="0">e</tspan><tspan class="cls-4" x="12.41" y="0">x</tspan><tspan class="cls-9" x="17.52" y="0">t</tspan><tspan class="cls-10" x="21.02" y="0">-</tspan><tspan class="cls-1" x="24.47" y="0">G</tspan><tspan x="31.46" y="0">en </tspan><tspan class="cls-8" x="45.08" y="0">S</tspan><tspan x="50.4" y="0">aaS </tspan><tspan class="cls-6" x="68.32" y="0">S</tspan><tspan x="73.68" y="0">olutions </tspan><tspan class="cls-12" x="112.47" y="0">f</tspan><tspan x="115.47" y="0">or Business</tspan></text>
  </g>
</svg>